<svg id="svg" version="1.1" xmlns="http://www.w3.org/2000/svg" xmlns:xlink="http://www.w3.org/1999/xlink" width="400" height="400" viewBox="0, 0, 400,400">
    <g id="svgg">
        <path id="path0" d="M198.532 1.700 C 198.331 1.975,197.959 2.650,197.705 3.200 C 196.640 5.508,195.600 7.972,195.600 8.188 C 195.600 8.316,194.790 10.131,193.800 12.221 C 192.810 14.312,192.000 16.209,192.000 16.436 C 192.000 16.663,191.571 17.783,191.046 18.925 C 190.521 20.066,189.765 21.900,189.367 23.000 C 188.968 24.100,188.353 25.540,188.000 26.200 C 187.647 26.860,187.027 28.300,186.623 29.400 C 186.218 30.500,185.758 31.580,185.599 31.800 C 185.440 32.020,185.183 32.733,185.027 33.384 C 184.870 34.035,184.282 35.565,183.720 36.784 C 183.157 38.003,182.369 39.720,181.969 40.600 C 180.940 42.864,177.214 51.853,176.414 54.000 C 176.045 54.990,175.466 56.430,175.126 57.200 C 174.786 57.970,173.920 60.040,173.202 61.800 C 172.484 63.560,171.487 65.900,170.987 67.000 C 169.793 69.628,166.834 76.677,166.287 78.200 C 166.050 78.860,165.438 80.290,164.928 81.379 C 164.418 82.467,164.000 83.579,164.000 83.849 C 164.000 84.120,163.350 85.749,162.556 87.468 C 161.761 89.188,160.762 91.496,160.335 92.598 C 159.330 95.192,156.940 100.930,155.964 103.096 C 155.544 104.028,155.200 104.898,155.200 105.029 C 155.200 105.276,153.337 109.687,151.917 112.800 C 151.466 113.790,150.472 116.220,149.708 118.200 C 148.944 120.180,148.171 121.982,147.990 122.205 C 147.808 122.428,147.277 123.688,146.809 125.005 C 146.341 126.322,145.756 127.760,145.510 128.200 C 145.264 128.640,144.215 131.160,143.179 133.800 C 142.143 136.440,140.535 140.400,139.605 142.600 C 138.674 144.800,137.496 147.590,136.986 148.800 C 136.476 150.010,134.762 154.060,133.177 157.800 C 131.593 161.540,130.163 165.050,130.001 165.600 C 129.839 166.150,129.307 167.500,128.820 168.600 C 128.333 169.700,127.477 171.680,126.919 173.000 C 126.360 174.320,125.769 175.673,125.606 176.007 C 125.443 176.341,123.382 181.291,121.026 187.007 C 118.670 192.723,116.395 198.163,115.971 199.096 C 115.547 200.028,115.200 200.895,115.200 201.021 C 115.200 201.148,114.750 202.235,114.200 203.437 C 113.650 204.640,113.200 205.734,113.200 205.868 C 113.200 206.002,112.849 206.852,112.420 207.756 C 110.999 210.753,107.544 218.974,107.005 220.641 C 106.713 221.543,106.114 223.073,105.674 224.041 C 103.721 228.338,102.800 230.526,102.800 230.868 C 102.800 231.071,102.170 232.583,101.400 234.227 C 100.630 235.872,100.000 237.473,100.000 237.785 C 100.000 238.097,99.833 238.456,99.629 238.582 C 99.425 238.708,99.047 239.484,98.789 240.306 C 98.330 241.764,96.676 245.745,95.157 249.044 C 94.741 249.948,94.400 250.819,94.400 250.979 C 94.400 251.139,93.860 252.437,93.200 253.863 C 92.540 255.289,92.000 256.596,92.000 256.768 C 92.000 256.940,91.591 257.873,91.091 258.840 C 90.592 259.808,89.845 261.590,89.433 262.800 C 89.021 264.010,88.080 266.309,87.342 267.909 C 86.604 269.509,86.000 270.970,86.000 271.157 C 86.000 271.344,85.176 273.365,84.169 275.649 C 83.163 277.932,82.195 280.250,82.018 280.800 C 81.842 281.350,80.943 283.510,80.022 285.600 C 79.100 287.690,77.893 290.570,77.341 292.000 C 76.789 293.430,76.095 295.140,75.799 295.800 C 74.496 298.707,72.800 302.753,72.800 302.955 C 72.800 303.150,72.177 304.600,70.202 309.000 C 69.905 309.660,69.195 311.446,68.624 312.968 C 68.052 314.491,67.426 315.931,67.233 316.168 C 67.040 316.406,66.656 317.365,66.378 318.300 C 66.100 319.235,65.743 320.000,65.583 320.000 C 65.423 320.000,64.992 320.945,64.626 322.100 C 63.831 324.607,61.983 329.222,61.526 329.841 C 61.347 330.083,60.771 331.433,60.247 332.841 C 58.955 336.306,56.483 342.328,55.749 343.800 C 55.419 344.460,54.424 346.800,53.537 349.000 C 52.650 351.200,51.602 353.720,51.208 354.600 C 50.813 355.480,49.915 357.640,49.210 359.400 C 48.506 361.160,47.507 363.500,46.990 364.600 C 46.473 365.700,45.924 367.050,45.770 367.600 C 45.616 368.150,45.081 369.500,44.582 370.600 C 44.082 371.700,43.015 374.220,42.209 376.200 C 41.404 378.180,40.398 380.563,39.973 381.496 C 39.548 382.428,39.194 383.328,39.186 383.496 C 39.179 383.663,38.825 384.520,38.400 385.400 C 37.975 386.280,37.621 387.143,37.614 387.317 C 37.606 387.491,37.060 388.788,36.400 390.200 C 35.740 391.612,35.200 392.882,35.200 393.023 C 35.200 393.164,34.941 393.846,34.625 394.540 C 33.524 396.953,32.800 398.901,32.800 399.451 C 32.800 400.497,111.749 400.047,111.919 399.000 C 112.032 398.309,113.356 394.729,114.435 392.200 C 114.622 391.760,115.330 389.960,116.007 388.200 C 116.684 386.440,117.481 384.460,117.778 383.800 C 119.114 380.826,124.259 367.852,126.185 362.600 C 126.911 360.620,127.822 358.280,128.210 357.400 C 128.598 356.520,129.153 355.260,129.443 354.600 C 130.354 352.525,132.819 346.324,133.976 343.195 C 134.587 341.542,135.473 339.434,135.944 338.511 C 136.415 337.587,136.800 336.605,136.800 336.327 C 136.800 336.049,137.624 333.837,138.630 331.411 C 139.637 328.985,141.006 325.650,141.673 324.000 C 142.339 322.350,143.316 320.051,143.842 318.891 C 144.369 317.731,144.800 316.588,144.800 316.352 C 144.800 315.888,145.511 314.188,147.040 310.994 C 147.568 309.891,148.000 308.841,148.000 308.660 C 148.000 308.479,149.365 304.882,151.033 300.666 C 152.700 296.450,154.203 292.640,154.372 292.200 C 154.541 291.760,155.156 290.361,155.740 289.091 C 156.323 287.821,156.800 286.506,156.800 286.167 C 156.800 285.829,157.520 284.044,158.400 282.200 C 159.280 280.356,160.001 278.522,160.001 278.124 C 160.002 277.726,160.369 276.799,160.817 276.065 C 161.265 275.330,162.062 273.411,162.588 271.798 C 163.114 270.186,163.829 268.317,164.177 267.644 C 164.525 266.972,165.276 265.112,165.847 263.511 C 166.418 261.910,167.121 260.060,167.410 259.400 C 168.429 257.070,170.906 250.970,171.795 248.600 C 173.495 244.069,179.287 229.800,179.588 229.400 C 179.754 229.180,180.015 228.460,180.168 227.800 C 180.322 227.140,180.764 225.880,181.152 225.000 C 181.878 223.354,182.423 221.927,183.521 218.800 C 183.869 217.810,184.724 215.740,185.422 214.200 C 186.120 212.660,187.004 210.590,187.386 209.600 C 187.769 208.610,188.244 207.487,188.441 207.105 C 188.638 206.723,188.800 206.213,188.800 205.970 C 188.800 205.728,189.314 204.419,189.942 203.061 C 190.571 201.704,191.218 200.145,191.380 199.597 C 191.636 198.733,192.570 196.490,194.626 191.800 C 194.915 191.140,195.545 189.520,196.025 188.200 C 196.505 186.880,197.088 185.350,197.320 184.800 C 197.552 184.250,198.025 182.990,198.371 182.000 C 199.519 178.715,200.066 179.619,205.388 193.600 C 206.184 195.690,207.000 197.701,207.202 198.070 C 207.844 199.242,209.668 203.755,210.002 205.000 C 210.325 206.205,211.445 209.046,212.917 212.400 C 214.310 215.575,215.997 219.791,215.999 220.102 C 215.999 220.268,216.450 221.337,217.000 222.477 C 217.550 223.617,218.000 224.797,218.000 225.100 C 218.000 225.402,218.426 226.583,218.946 227.725 C 219.467 228.866,220.386 231.060,220.988 232.600 C 221.591 234.140,222.335 235.878,222.642 236.462 C 222.949 237.046,223.200 237.729,223.200 237.981 C 223.200 238.233,223.560 239.184,224.000 240.094 C 224.440 241.005,224.800 241.972,224.800 242.242 C 224.800 242.513,225.250 243.630,225.800 244.725 C 226.350 245.820,226.800 247.055,226.800 247.469 C 226.800 247.883,227.035 248.577,227.322 249.011 C 227.833 249.784,228.207 250.680,231.568 259.200 C 232.480 261.510,233.400 263.713,233.613 264.095 C 233.826 264.477,234.000 264.967,234.000 265.184 C 234.000 265.401,234.469 266.618,235.041 267.889 C 236.202 270.464,236.276 270.647,237.753 274.610 C 238.329 276.155,238.800 277.720,238.800 278.086 C 238.800 278.453,238.967 278.856,239.171 278.982 C 239.375 279.108,239.758 279.884,240.023 280.706 C 240.287 281.528,241.085 283.460,241.795 285.000 C 242.505 286.540,243.317 288.520,243.598 289.400 C 243.879 290.280,244.422 291.630,244.805 292.400 C 245.188 293.170,245.898 294.970,246.384 296.400 C 246.870 297.830,247.407 299.180,247.578 299.400 C 247.748 299.620,248.205 300.700,248.592 301.800 C 250.092 306.057,250.982 308.225,251.481 308.831 C 251.767 309.179,252.000 309.753,252.000 310.108 C 252.000 310.463,252.170 310.858,252.377 310.986 C 252.584 311.114,252.875 312.027,253.023 313.014 C 253.171 314.001,253.600 315.212,253.975 315.705 C 254.351 316.197,255.080 317.770,255.595 319.200 C 256.111 320.630,256.842 322.520,257.220 323.400 C 257.599 324.280,258.763 327.160,259.808 329.800 C 260.853 332.440,261.950 335.140,262.247 335.800 C 262.543 336.460,263.128 337.990,263.547 339.200 C 264.315 341.420,269.278 353.931,271.004 358.000 C 272.234 360.900,274.684 367.055,276.975 373.000 C 277.993 375.640,279.089 378.310,279.412 378.932 C 279.736 379.555,280.001 380.275,280.002 380.532 C 280.003 380.790,280.453 381.886,281.002 382.968 C 281.551 384.050,282.002 385.220,282.004 385.568 C 282.006 385.916,282.450 387.100,282.991 388.200 C 283.532 389.300,283.981 390.479,283.987 390.820 C 283.994 391.161,284.169 391.611,284.374 391.820 C 284.901 392.354,287.200 398.433,287.200 399.291 C 287.200 399.965,289.150 400.000,326.600 400.000 L 366.000 400.000 366.000 399.024 C 366.000 398.487,365.853 397.956,365.673 397.845 C 365.493 397.734,364.579 395.788,363.641 393.522 C 361.732 388.905,360.172 385.194,359.386 383.400 C 359.098 382.740,358.217 380.737,357.431 378.950 C 356.644 377.162,356.000 375.501,356.000 375.259 C 356.000 375.016,355.560 373.869,355.021 372.709 C 352.892 368.120,352.000 366.031,352.000 365.634 C 352.000 365.405,351.570 364.269,351.044 363.109 C 350.155 361.148,349.665 359.996,347.000 353.600 C 344.855 348.452,343.857 346.120,342.947 344.125 C 342.426 342.984,342.000 341.863,342.000 341.634 C 342.000 341.405,341.557 340.269,341.015 339.109 C 340.473 337.949,339.370 335.290,338.565 333.200 C 337.760 331.110,336.866 328.950,336.578 328.400 C 336.290 327.850,334.666 323.980,332.969 319.800 C 331.273 315.620,329.730 312.029,329.542 311.820 C 329.354 311.611,329.200 311.191,329.200 310.887 C 329.200 310.401,327.922 307.217,326.170 303.340 C 325.857 302.648,324.808 300.128,323.840 297.740 C 322.871 295.353,321.605 292.320,321.026 291.000 C 319.340 287.157,318.615 285.395,315.509 277.600 C 314.852 275.950,313.986 273.880,313.585 273.000 C 312.113 269.770,308.800 261.790,308.800 261.475 C 308.800 261.296,308.369 260.216,307.841 259.075 C 306.899 257.036,304.928 252.337,303.195 248.000 C 302.712 246.790,302.078 245.260,301.785 244.600 C 301.493 243.940,300.596 241.780,299.792 239.800 C 298.988 237.820,297.806 235.062,297.165 233.672 C 296.524 232.282,296.001 231.022,296.001 230.872 C 296.002 230.574,294.251 226.109,293.383 224.200 C 290.528 217.916,290.000 216.688,290.000 216.329 C 290.000 216.102,289.550 215.020,289.000 213.925 C 288.450 212.830,287.994 211.724,287.987 211.467 C 287.981 211.210,287.532 210.100,286.991 209.000 C 286.450 207.900,286.006 206.823,286.004 206.606 C 286.002 206.389,285.574 205.309,285.054 204.206 C 283.773 201.489,282.369 198.180,280.470 193.400 C 278.811 189.224,274.040 177.763,272.810 175.000 C 272.419 174.120,271.859 172.680,271.566 171.800 C 271.273 170.920,270.910 170.020,270.760 169.800 C 270.610 169.580,269.285 166.430,267.816 162.800 C 266.347 159.170,264.911 155.750,264.625 155.200 C 264.339 154.650,263.789 153.210,263.403 152.000 C 263.017 150.790,262.375 149.170,261.977 148.400 C 261.579 147.630,260.773 145.830,260.186 144.400 C 259.599 142.970,258.794 141.080,258.396 140.200 C 257.999 139.320,257.018 136.980,256.216 135.000 C 255.415 133.020,254.338 130.491,253.823 129.380 C 253.307 128.269,252.608 126.540,252.268 125.538 C 251.928 124.537,251.112 122.476,250.456 120.959 C 247.346 113.770,246.258 111.161,245.137 108.200 C 244.470 106.440,243.587 104.280,243.173 103.400 C 242.205 101.343,239.074 93.820,238.427 92.000 C 238.153 91.230,237.697 90.150,237.413 89.600 C 237.129 89.050,236.229 86.890,235.414 84.800 C 234.598 82.710,233.422 79.830,232.800 78.400 C 232.178 76.970,231.278 74.810,230.800 73.600 C 229.612 70.592,227.987 66.763,227.500 65.824 C 226.990 64.839,224.417 58.525,223.986 57.200 C 223.807 56.650,222.837 54.332,221.831 52.049 C 220.824 49.765,220.000 47.733,220.000 47.532 C 220.000 47.331,219.481 46.049,218.847 44.683 C 218.212 43.317,217.297 41.210,216.812 40.000 C 215.661 37.125,214.317 33.956,213.034 31.089 C 212.465 29.818,212.000 28.609,212.000 28.403 C 212.000 28.196,211.745 27.436,211.433 26.714 C 211.122 25.991,210.558 24.680,210.181 23.800 C 209.803 22.920,209.158 21.491,208.747 20.625 C 208.336 19.759,208.000 18.840,208.000 18.584 C 208.000 18.329,207.550 17.273,207.000 16.238 C 206.450 15.204,206.000 14.072,206.000 13.722 C 206.000 13.372,205.190 11.399,204.200 9.336 C 203.210 7.274,202.403 5.454,202.407 5.293 C 202.459 3.076,199.519 0.350,198.532 1.700 " stroke="none" fill="#4d5c6a" fill-rule="evenodd"></path>
        <path id="path1" d="M0.000 200.000 L 0.000 400.000 16.303 400.000 L 32.605 400.000 33.131 398.317 C 33.420 397.391,34.003 395.871,34.428 394.939 C 34.853 394.006,35.200 393.137,35.200 393.005 C 35.200 392.874,35.740 391.612,36.400 390.200 C 37.060 388.788,37.606 387.491,37.614 387.317 C 37.621 387.143,37.975 386.280,38.400 385.400 C 38.825 384.520,39.179 383.663,39.186 383.496 C 39.194 383.328,39.548 382.428,39.973 381.496 C 40.398 380.563,41.404 378.180,42.209 376.200 C 43.015 374.220,44.082 371.700,44.582 370.600 C 45.081 369.500,45.616 368.150,45.770 367.600 C 45.924 367.050,46.473 365.700,46.990 364.600 C 47.507 363.500,48.506 361.160,49.210 359.400 C 49.915 357.640,50.813 355.480,51.208 354.600 C 51.602 353.720,52.650 351.200,53.537 349.000 C 54.424 346.800,55.419 344.460,55.749 343.800 C 56.483 342.328,58.955 336.306,60.247 332.841 C 60.771 331.433,61.347 330.083,61.526 329.841 C 61.983 329.222,63.831 324.607,64.626 322.100 C 64.992 320.945,65.423 320.000,65.583 320.000 C 65.743 320.000,66.100 319.235,66.378 318.300 C 66.656 317.365,67.040 316.406,67.233 316.168 C 67.426 315.931,68.052 314.491,68.624 312.968 C 69.195 311.446,69.905 309.660,70.202 309.000 C 72.177 304.600,72.800 303.150,72.800 302.955 C 72.800 302.753,74.496 298.707,75.799 295.800 C 76.095 295.140,76.789 293.430,77.341 292.000 C 77.893 290.570,79.100 287.690,80.022 285.600 C 80.943 283.510,81.842 281.350,82.018 280.800 C 82.195 280.250,83.163 277.932,84.169 275.649 C 85.176 273.365,86.000 271.344,86.000 271.157 C 86.000 270.970,86.604 269.509,87.342 267.909 C 88.080 266.309,89.021 264.010,89.433 262.800 C 89.845 261.590,90.592 259.808,91.091 258.840 C 91.591 257.873,92.000 256.940,92.000 256.768 C 92.000 256.596,92.540 255.289,93.200 253.863 C 93.860 252.437,94.400 251.139,94.400 250.979 C 94.400 250.819,94.741 249.948,95.157 249.044 C 96.676 245.745,98.330 241.764,98.789 240.306 C 99.047 239.484,99.425 238.708,99.629 238.582 C 99.833 238.456,100.000 238.097,100.000 237.785 C 100.000 237.473,100.630 235.872,101.400 234.227 C 102.170 232.583,102.800 231.071,102.800 230.868 C 102.800 230.526,103.721 228.338,105.674 224.041 C 106.114 223.073,106.713 221.543,107.005 220.641 C 107.544 218.974,110.999 210.753,112.420 207.756 C 112.849 206.852,113.200 206.002,113.200 205.868 C 113.200 205.734,113.650 204.640,114.200 203.437 C 114.750 202.235,115.200 201.148,115.200 201.021 C 115.200 200.895,115.547 200.028,115.971 199.096 C 116.395 198.163,118.670 192.723,121.026 187.007 C 123.382 181.291,125.443 176.341,125.606 176.007 C 125.769 175.673,126.360 174.320,126.919 173.000 C 127.477 171.680,128.333 169.700,128.820 168.600 C 129.307 167.500,129.839 166.150,130.001 165.600 C 130.163 165.050,131.593 161.540,133.177 157.800 C 134.762 154.060,136.476 150.010,136.986 148.800 C 137.496 147.590,138.674 144.800,139.605 142.600 C 140.535 140.400,142.143 136.440,143.179 133.800 C 144.215 131.160,145.264 128.640,145.510 128.200 C 145.756 127.760,146.341 126.322,146.809 125.005 C 147.277 123.688,147.808 122.428,147.990 122.205 C 148.171 121.982,148.944 120.180,149.708 118.200 C 150.472 116.220,151.466 113.790,151.917 112.800 C 153.337 109.687,155.200 105.276,155.200 105.029 C 155.200 104.898,155.544 104.028,155.964 103.096 C 156.940 100.930,159.330 95.192,160.335 92.598 C 160.762 91.496,161.761 89.188,162.556 87.468 C 163.350 85.749,164.000 84.120,164.000 83.849 C 164.000 83.579,164.418 82.467,164.928 81.379 C 165.438 80.290,166.050 78.860,166.287 78.200 C 166.834 76.677,169.793 69.628,170.987 67.000 C 171.487 65.900,172.484 63.560,173.202 61.800 C 173.920 60.040,174.786 57.970,175.126 57.200 C 175.466 56.430,176.045 54.990,176.414 54.000 C 177.214 51.853,180.940 42.864,181.969 40.600 C 182.369 39.720,183.157 38.003,183.720 36.784 C 184.282 35.565,184.870 34.035,185.027 33.384 C 185.183 32.733,185.440 32.020,185.599 31.800 C 185.758 31.580,186.218 30.500,186.623 29.400 C 187.027 28.300,187.647 26.860,188.000 26.200 C 188.353 25.540,188.968 24.100,189.367 23.000 C 189.765 21.900,190.521 20.066,191.046 18.925 C 191.571 17.783,192.000 16.663,192.000 16.436 C 192.000 16.209,192.810 14.312,193.800 12.221 C 194.790 10.131,195.600 8.316,195.600 8.188 C 195.600 7.905,196.983 4.716,197.937 2.800 C 199.180 0.302,202.481 2.142,202.407 5.293 C 202.403 5.454,203.210 7.274,204.200 9.336 C 205.190 11.399,206.000 13.372,206.000 13.722 C 206.000 14.072,206.450 15.204,207.000 16.238 C 207.550 17.273,208.000 18.329,208.000 18.584 C 208.000 18.840,208.336 19.759,208.747 20.625 C 209.158 21.491,209.803 22.920,210.181 23.800 C 210.558 24.680,211.122 25.991,211.433 26.714 C 211.745 27.436,212.000 28.196,212.000 28.403 C 212.000 28.609,212.465 29.818,213.034 31.089 C 214.317 33.956,215.661 37.125,216.812 40.000 C 217.297 41.210,218.212 43.317,218.847 44.683 C 219.481 46.049,220.000 47.331,220.000 47.532 C 220.000 47.733,220.824 49.765,221.831 52.049 C 222.837 54.332,223.807 56.650,223.986 57.200 C 224.417 58.525,226.990 64.839,227.500 65.824 C 227.987 66.763,229.612 70.592,230.800 73.600 C 231.278 74.810,232.178 76.970,232.800 78.400 C 233.422 79.830,234.598 82.710,235.414 84.800 C 236.229 86.890,237.129 89.050,237.413 89.600 C 237.697 90.150,238.153 91.230,238.427 92.000 C 239.074 93.820,242.205 101.343,243.173 103.400 C 243.587 104.280,244.470 106.440,245.137 108.200 C 246.258 111.161,247.346 113.770,250.456 120.959 C 251.112 122.476,251.928 124.537,252.268 125.538 C 252.608 126.540,253.307 128.269,253.823 129.380 C 254.338 130.491,255.415 133.020,256.216 135.000 C 257.018 136.980,257.999 139.320,258.396 140.200 C 258.794 141.080,259.599 142.970,260.186 144.400 C 260.773 145.830,261.579 147.630,261.977 148.400 C 262.375 149.170,263.017 150.790,263.403 152.000 C 263.789 153.210,264.339 154.650,264.625 155.200 C 264.911 155.750,266.347 159.170,267.816 162.800 C 269.285 166.430,270.610 169.580,270.760 169.800 C 270.910 170.020,271.273 170.920,271.566 171.800 C 271.859 172.680,272.419 174.120,272.810 175.000 C 274.040 177.763,278.811 189.224,280.470 193.400 C 282.369 198.180,283.773 201.489,285.054 204.206 C 285.574 205.309,286.002 206.389,286.004 206.606 C 286.006 206.823,286.450 207.900,286.991 209.000 C 287.532 210.100,287.981 211.210,287.987 211.467 C 287.994 211.724,288.450 212.830,289.000 213.925 C 289.550 215.020,290.000 216.102,290.000 216.329 C 290.000 216.688,290.528 217.916,293.383 224.200 C 294.251 226.109,296.002 230.574,296.001 230.872 C 296.001 231.022,296.524 232.282,297.165 233.672 C 297.806 235.062,298.988 237.820,299.792 239.800 C 300.596 241.780,301.493 243.940,301.785 244.600 C 302.078 245.260,302.712 246.790,303.195 248.000 C 304.928 252.337,306.899 257.036,307.841 259.075 C 308.369 260.216,308.800 261.296,308.800 261.475 C 308.800 261.790,312.113 269.770,313.585 273.000 C 313.986 273.880,314.852 275.950,315.509 277.600 C 318.615 285.395,319.340 287.157,321.026 291.000 C 321.605 292.320,322.871 295.353,323.840 297.740 C 324.808 300.128,325.857 302.648,326.170 303.340 C 327.922 307.217,329.200 310.401,329.200 310.887 C 329.200 311.191,329.354 311.611,329.542 311.820 C 329.730 312.029,331.273 315.620,332.969 319.800 C 334.666 323.980,336.290 327.850,336.578 328.400 C 336.866 328.950,337.760 331.110,338.565 333.200 C 339.370 335.290,340.473 337.949,341.015 339.109 C 341.557 340.269,342.000 341.405,342.000 341.634 C 342.000 341.863,342.426 342.984,342.947 344.125 C 343.857 346.120,344.855 348.452,347.000 353.600 C 349.665 359.996,350.155 361.148,351.044 363.109 C 351.570 364.269,352.000 365.405,352.000 365.634 C 352.000 366.031,352.892 368.120,355.021 372.709 C 355.560 373.869,356.000 375.016,356.000 375.259 C 356.000 375.501,356.644 377.162,357.431 378.950 C 358.217 380.737,359.098 382.740,359.386 383.400 C 360.172 385.194,361.732 388.905,363.641 393.522 C 364.579 395.788,365.493 397.734,365.673 397.845 C 365.853 397.956,366.000 398.487,366.000 399.024 L 366.000 400.000 383.000 400.000 L 400.000 400.000 400.000 200.000 L 400.000 0.000 200.000 0.000 L 0.000 0.000 0.000 200.000 M198.592 181.358 C 198.266 182.137,198.000 182.945,198.000 183.155 C 198.000 183.364,197.747 184.045,197.438 184.668 C 197.129 185.290,196.488 186.880,196.014 188.200 C 195.540 189.520,194.915 191.140,194.626 191.800 C 192.570 196.490,191.636 198.733,191.380 199.597 C 191.218 200.145,190.571 201.704,189.942 203.061 C 189.314 204.419,188.800 205.728,188.800 205.970 C 188.800 206.213,188.638 206.723,188.441 207.105 C 188.244 207.487,187.769 208.610,187.386 209.600 C 187.004 210.590,186.120 212.660,185.422 214.200 C 184.724 215.740,183.869 217.810,183.521 218.800 C 182.423 221.927,181.878 223.354,181.152 225.000 C 180.764 225.880,180.322 227.140,180.168 227.800 C 180.015 228.460,179.754 229.180,179.588 229.400 C 179.287 229.800,173.495 244.069,171.795 248.600 C 170.906 250.970,168.429 257.070,167.410 259.400 C 167.121 260.060,166.418 261.910,165.847 263.511 C 165.276 265.112,164.525 266.972,164.177 267.644 C 163.829 268.317,163.114 270.186,162.588 271.798 C 162.062 273.411,161.265 275.330,160.817 276.065 C 160.369 276.799,160.002 277.726,160.001 278.124 C 160.001 278.522,159.280 280.356,158.400 282.200 C 157.520 284.044,156.800 285.829,156.800 286.167 C 156.800 286.506,156.323 287.821,155.740 289.091 C 155.156 290.361,154.541 291.760,154.372 292.200 C 154.203 292.640,152.700 296.450,151.033 300.666 C 149.365 304.882,148.000 308.479,148.000 308.660 C 148.000 308.841,147.568 309.891,147.040 310.994 C 145.511 314.188,144.800 315.888,144.800 316.352 C 144.800 316.588,144.369 317.731,143.842 318.891 C 143.316 320.051,142.339 322.350,141.673 324.000 C 141.006 325.650,139.637 328.985,138.630 331.411 C 137.624 333.837,136.800 336.049,136.800 336.327 C 136.800 336.605,136.415 337.587,135.944 338.511 C 135.473 339.434,134.587 341.542,133.976 343.195 C 132.819 346.324,130.354 352.525,129.443 354.600 C 129.153 355.260,128.598 356.520,128.210 357.400 C 127.822 358.280,126.911 360.620,126.185 362.600 C 124.259 367.852,119.114 380.826,117.778 383.800 C 117.481 384.460,116.684 386.440,116.007 388.200 C 115.330 389.960,114.622 391.760,114.435 392.200 C 113.516 394.354,112.052 398.299,111.874 399.100 L 111.675 400.000 199.437 400.000 C 283.184 400.000,287.200 399.968,287.200 399.291 C 287.200 398.433,284.901 392.354,284.374 391.820 C 284.169 391.611,283.994 391.161,283.987 390.820 C 283.981 390.479,283.532 389.300,282.991 388.200 C 282.450 387.100,282.006 385.916,282.004 385.568 C 282.002 385.220,281.551 384.050,281.002 382.968 C 280.453 381.886,280.003 380.790,280.002 380.532 C 280.001 380.275,279.736 379.555,279.412 378.932 C 279.089 378.310,277.993 375.640,276.975 373.000 C 274.684 367.055,272.234 360.900,271.004 358.000 C 269.278 353.931,264.315 341.420,263.547 339.200 C 263.128 337.990,262.543 336.460,262.247 335.800 C 261.950 335.140,260.853 332.440,259.808 329.800 C 258.763 327.160,257.599 324.280,257.220 323.400 C 256.842 322.520,256.111 320.630,255.595 319.200 C 255.080 317.770,254.351 316.197,253.975 315.705 C 253.600 315.212,253.171 314.001,253.023 313.014 C 252.875 312.027,252.584 311.114,252.377 310.986 C 252.170 310.858,252.000 310.463,252.000 310.108 C 252.000 309.753,251.767 309.179,251.481 308.831 C 250.982 308.225,250.092 306.057,248.592 301.800 C 248.205 300.700,247.748 299.620,247.578 299.400 C 247.407 299.180,246.870 297.830,246.384 296.400 C 245.898 294.970,245.188 293.170,244.805 292.400 C 244.422 291.630,243.879 290.280,243.598 289.400 C 243.317 288.520,242.505 286.540,241.795 285.000 C 241.085 283.460,240.287 281.528,240.023 280.706 C 239.758 279.884,239.375 279.108,239.171 278.982 C 238.967 278.856,238.800 278.453,238.800 278.086 C 238.800 277.720,238.329 276.155,237.753 274.610 C 236.276 270.647,236.202 270.464,235.041 267.889 C 234.469 266.618,234.000 265.401,234.000 265.184 C 234.000 264.967,233.826 264.477,233.613 264.095 C 233.400 263.713,232.480 261.510,231.568 259.200 C 228.207 250.680,227.833 249.784,227.322 249.011 C 227.035 248.577,226.800 247.883,226.800 247.469 C 226.800 247.055,226.350 245.820,225.800 244.725 C 225.250 243.630,224.800 242.513,224.800 242.242 C 224.800 241.972,224.440 241.005,224.000 240.094 C 223.560 239.184,223.200 238.233,223.200 237.981 C 223.200 237.729,222.949 237.046,222.642 236.462 C 222.335 235.878,221.591 234.140,220.988 232.600 C 220.386 231.060,219.467 228.866,218.946 227.725 C 218.426 226.583,218.000 225.402,218.000 225.100 C 218.000 224.797,217.550 223.617,217.000 222.477 C 216.450 221.337,215.999 220.268,215.999 220.102 C 215.997 219.791,214.310 215.575,212.917 212.400 C 211.445 209.046,210.325 206.205,210.002 205.000 C 209.668 203.755,207.844 199.242,207.202 198.070 C 207.000 197.701,206.184 195.690,205.388 193.600 C 200.173 179.900,199.618 178.901,198.592 181.358 " stroke="none" fill="#fbb343" fill-rule="evenodd"></path>
    </g>
</svg>